# xmcd CD database file
#
# Track frame offsets:
#	150
#	14185
#	29593
#	43951
#	58286
#	72524
#	87302
#	103752
#	120307
#	136434
#
# Disc length: 1999 seconds
#
# Revision: 1
# Processed by: cddbd v1.4PL0 Copyright (c) Steve Scherf et al.
# Submitted via: CDex 1.40Release
#
DISCID=9a07cd0a
DTITLE=Glen Campbell - Rhinestone Cowboy
DYEAR=1975
DGENRE=Country
TTITLE0=Country Boy (You Got Your Feet In L.A.)
TTITLE1=Comeback
TTITLE2=Count On Me\
TTITLE3=I Miss You Tonight
TTITLE4=My Girl
TTITLE5=Rhinestone Cowboy
TTITLE6=I'd Build A Bridge
TTITLE7=Pencils For Sale
TTITLE8=Marie
TTITLE9=We're Over
EXTD=YEAR: 1975 ID3G: 2
EXTT0=
EXTT1=
EXTT2=
EXTT3=
EXTT4=
EXTT5=
EXTT6=
EXTT7=
EXTT8=
EXTT9=
PLAYORDER=
